<svg width="728" height="353" viewBox="0 0 728 353" fill="none" xmlns="http://www.w3.org/2000/svg">
<mask id="mask0" mask-type="alpha" maskUnits="userSpaceOnUse" x="0" y="0" width="688" height="353">
<rect width="688" height="352.6" rx="10.32" fill="url(#paint0_linear)"/>
</mask>
<g mask="url(#mask0)">
<rect opacity="0.6" width="688" height="352.6" rx="10.32" fill="url(#paint1_linear)"/>
<rect width="688" height="352.6" rx="10.32" fill="url(#paint2_linear)"/>
</g>
<path opacity="0.3" d="M478.635 174.218C456.98 174.128 436.172 182.629 420.774 197.859C405.376 213.088 396.644 233.802 396.492 255.46C396.476 266.144 398.594 276.723 402.721 286.577C406.848 296.431 412.901 305.361 420.525 312.844C423.753 316.018 428.099 317.796 432.626 317.796C437.153 317.796 441.498 316.018 444.727 312.844C446.316 311.281 447.578 309.416 448.439 307.36C449.3 305.304 449.744 303.097 449.744 300.867C449.744 298.638 449.3 296.43 448.439 294.374C447.578 292.318 446.316 290.453 444.727 288.89C440.285 284.519 436.756 279.308 434.348 273.56C431.939 267.812 430.699 261.642 430.699 255.41C430.699 249.177 431.939 243.007 434.348 237.259C436.756 231.511 440.285 226.3 444.727 221.929C453.758 213.043 465.918 208.063 478.586 208.063C491.255 208.063 503.415 213.043 512.446 221.929C516.888 226.3 520.417 231.511 522.825 237.259C525.233 243.007 526.474 249.177 526.474 255.41C526.474 261.642 525.233 267.812 522.825 273.56C520.417 279.308 516.888 284.519 512.446 288.89C510.857 290.453 509.595 292.317 508.734 294.373C507.872 296.429 507.429 298.636 507.429 300.865C507.429 303.094 507.872 305.3 508.734 307.356C509.595 309.412 510.857 311.276 512.446 312.84C515.674 316.013 520.02 317.791 524.547 317.791C529.074 317.791 533.419 316.013 536.648 312.84C544.291 305.366 550.363 296.44 554.509 286.587C558.654 276.733 560.788 266.151 560.787 255.46C560.635 233.8 551.902 213.085 536.502 197.855C521.101 182.626 500.292 174.125 478.635 174.218Z" fill="url(#paint3_linear)"/>
<path opacity="0.3" d="M691.824 34.4008C673.336 34.3162 655.568 41.5605 642.42 54.5445C629.272 67.5284 621.816 85.1917 621.689 103.66C621.689 122.24 629.078 140.059 642.231 153.198C655.384 166.336 673.223 173.717 691.824 173.717C710.426 173.717 728.265 166.336 741.418 153.198C754.571 140.059 761.96 122.24 761.96 103.66C761.833 85.1917 754.377 67.5284 741.229 54.5445C728.08 41.5605 710.313 34.3162 691.824 34.4008ZM691.824 140.239C684.599 140.157 677.559 137.942 671.591 133.872C665.623 129.802 660.993 124.06 658.285 117.368C655.577 110.676 654.911 103.334 656.371 96.2646C657.831 89.1954 661.353 82.7157 666.491 77.6411C671.63 72.5664 678.157 69.1235 685.25 67.7458C692.343 66.3681 699.686 67.1171 706.354 69.8986C713.022 72.6801 718.717 77.3697 722.723 83.3771C726.729 89.3846 728.866 96.4415 728.865 103.66C728.838 108.491 727.858 113.269 725.981 117.722C724.105 122.175 721.369 126.216 717.929 129.612C714.49 133.009 710.414 135.696 705.935 137.519C701.456 139.342 696.661 140.267 691.824 140.239Z" fill="url(#paint4_linear)"/>
<defs>
<linearGradient id="paint0_linear" x1="6.92775" y1="107.5" x2="656.823" y2="343.063" gradientUnits="userSpaceOnUse">
<stop stop-color="#00A5F0"/>
<stop offset="1" stop-color="#00D7D7"/>
</linearGradient>
<linearGradient id="paint1_linear" x1="229.513" y1="474.786" x2="439.502" y2="66.2629" gradientUnits="userSpaceOnUse">
<stop stop-color="#0B6EB6"/>
<stop offset="1" stop-color="#00D7D7" stop-opacity="0"/>
</linearGradient>
<linearGradient id="paint2_linear" x1="6.92775" y1="107.5" x2="656.823" y2="343.063" gradientUnits="userSpaceOnUse">
<stop stop-color="#00A5F0"/>
<stop offset="1" stop-color="#03E7E7"/>
</linearGradient>
<linearGradient id="paint3_linear" x1="538.632" y1="326.55" x2="434.814" y2="219.277" gradientUnits="userSpaceOnUse">
<stop stop-color="white"/>
<stop offset="1" stop-color="white" stop-opacity="0"/>
</linearGradient>
<linearGradient id="paint4_linear" x1="647.52" y1="21.018" x2="658.484" y2="138.698" gradientUnits="userSpaceOnUse">
<stop stop-color="white"/>
<stop offset="1" stop-color="white" stop-opacity="0"/>
</linearGradient>
</defs>
</svg>
